<svg xmlns="http://www.w3.org/2000/svg" version="1.1" viewBox="-5.0 -10.0 110.0 135.0">
 <path d="m84.449 60.711h-9.4102v-46.352c0-0.69141-0.55859-1.25-1.25-1.25h-47.578c-0.69141 0-1.25 0.55859-1.25 1.25v15.27c0 0.69141 0.55859 1.25 1.25 1.25 0.69141 0 1.25-0.55859 1.25-1.25v-14.02h45.09v45.102h-2.2109v-41.621c0-0.69141-0.55859-1.25-1.25-1.25h-38.18c-0.69141 0-1.25 0.55859-1.25 1.25v19.52c0 0.69141 0.55859 1.25 1.25 1.25s1.25-0.55859 1.25-1.25v-18.27h16.602v40.371h-12.949c2.4492-8.6094 1.0781-17.16 1-17.621-0.078125-0.44922-0.39062-0.82031-0.82031-0.96875-0.42188-0.14844-0.89844-0.058594-1.2383 0.23828-1.6797 1.4883-3.0391 3.0391-4.1484 4.5586-0.57031-8.9414-5.9414-14.129-6.2109-14.379-0.32812-0.30859-0.80078-0.42187-1.2305-0.28125-0.42969 0.14063-0.75 0.48828-0.85156 0.92969-1.8711 8.9414-1.2305 16.078-0.60938 19.77-1.1094-0.44922-1.8789-0.57031-1.9102-0.57031-0.35156-0.050781-0.71094 0.058593-0.98047 0.30078-0.26953 0.23828-0.42188 0.57812-0.42188 0.94141 0 2.7812 0.44922 5.1211 1.0898 7.0781h-3.9102c-0.69141 0-1.25 0.55859-1.25 1.25v23.68c0 0.69141 0.55859 1.25 1.25 1.25h68.898c0.69141 0 1.25-0.55859 1.25-1.25v-23.68c0-0.69141-0.55859-1.25-1.25-1.25zm-1.25 2.5v14.801h-8.1602v-14.801zm-10.648 0v14.801h-2.2109v-14.801zm-21.301 14.801v-14.801h16.59v14.801zm0-57.672h16.59v40.371h-16.59zm-2.5 42.871v14.801h-14.02l0.78125-10.531c0.03125-0.35156-0.089844-0.69141-0.32812-0.94141-0.23828-0.25-0.57031-0.39844-0.91016-0.39844h-0.60938c0.5-0.96094 0.92969-1.9414 1.3086-2.9297h13.781zm-19.051 2.9297c-0.058594-1.0586-0.17969-2.0312-0.35156-2.9297h2.9219c-0.42188 1-0.91016 1.9883-1.4805 2.9297zm-2.5078 0h-1.5781c-0.46094-0.41016-1.3906-1.3711-2.3086-2.9297h3.5117c0.19141 0.87891 0.32031 1.8594 0.37891 2.9297zm-3.1406 2.4883h8.8789l-0.69922 9.3789h-7.4883l-0.69922-9.3789zm10.559-22.648c0.23828 3.2109 0.32031 9.0586-1.4297 14.73h-4.4805c-0.089844-0.26172-0.17969-0.51953-0.28125-0.76953 0.019531-1.1289 0.39844-7.7383 6.1914-13.961zm-10.328-9.7109c1.8906 2.6289 4.6602 7.8711 3.6914 15.199-0.82812 1.8516-1.3281 3.5508-1.6211 4.9492-0.57031-0.69141-1.1719-1.2617-1.7617-1.7383-0.37891-1.5586-1.8711-8.6992-0.30859-18.398zm-3.3516 19.039c0.51953 0.21875 1.1289 0.53906 1.7617 1 0.019532 0.019531 0.050782 0.039062 0.078125 0.050781 1.1602 0.87109 2.3906 2.2305 3.2695 4.3398h-3.9297c-0.57031-1.4805-1.0195-3.2695-1.1797-5.3984zm-4.1289 7.9023h3.6719c0.60156 1.2305 1.2617 2.2305 1.8594 3.0117-0.19922 0.058594-0.39062 0.16016-0.53906 0.32031-0.23828 0.25-0.35938 0.60156-0.32812 0.94141l0.78125 10.531h-5.4492v-14.801zm66.398 21.18h-66.398v-3.8906h66.41v3.8906z"/>
<text x="0.0" y="117.5" font-size="5.0" font-weight="bold" font-family="Arbeit Regular, Helvetica, Arial-Unicode, Arial, Sans-serif" fill="#000000">Created by Upnow Graphic</text><text x="0.0" y="122.5" font-size="5.0" font-weight="bold" font-family="Arbeit Regular, Helvetica, Arial-Unicode, Arial, Sans-serif" fill="#000000">from Noun Project</text></svg>