<svg xmlns="http://www.w3.org/2000/svg" data-name="Layer 1" viewBox="0 0 64 80" x="0px" y="0px"><path d="M17,23h10c.55,0,1-.45,1-1V11c0-.55-.45-1-1-1h-10c-.55,0-1,.45-1,1v11c0,.55,.45,1,1,1Zm1-3.59l1.93-1.93,2.93,3.52h-4.87v-1.59Zm8-7.41v9h-.53l-4.7-5.64c-.18-.22-.44-.35-.72-.36-.28,0-.55,.09-.75,.29l-1.29,1.29v-4.59h8Z"/><path d="M62,1h-17c-.55,0-1,.45-1,1V31h-3c-.55,0-1,.45-1,1s.45,1,1,1v4h-8c-.55,0-1,.45-1,1s.45,1,1,1v4h-8c-.55,0-1,.45-1,1s.45,1,1,1v4h-8c-.55,0-1,.45-1,1s.45,1,1,1h1v4H10c-.55,0-1,.45-1,1s.45,1,1,1v4H2c-.55,0-1,.45-1,1s.45,1,1,1H11c.55,0,1-.45,1-1v-5h7c.55,0,1-.45,1-1v-5h6c.55,0,1-.45,1-1v-5h7c.55,0,1-.45,1-1v-5h7c.55,0,1-.45,1-1v-5h19c.55,0,1-.45,1-1V2c0-.55-.45-1-1-1Zm-16,2h15V31h-15V3Z"/><ellipse cx="57" cy="14" rx="2" ry="1"/><circle cx="24" cy="14" r="1"/><text x="0" y="79" fill="#000000" font-size="5px" font-weight="bold" font-family="'Helvetica Neue', Helvetica, Arial-Unicode, Arial, Sans-serif">Created by Thirasak</text><text x="0" y="84" fill="#000000" font-size="5px" font-weight="bold" font-family="'Helvetica Neue', Helvetica, Arial-Unicode, Arial, Sans-serif">from the Noun Project</text></svg>