<svg xmlns="http://www.w3.org/2000/svg" version="1.1" viewBox="-5.0 -10.0 110.0 135.0">
 <path d="m87.527 17.805c0-0.55078 0.44922-1 1-1 0.55078 0 1 0.44922 1 1v5.0117c0 0.55078-0.44922 1-1 1-0.55078 0-1-0.44922-1-1zm-38.527 42.523v-6.4375c0-0.55078 0.44922-1 1-1s1 0.44922 1 1v6.4375h11.188v-5.4375h-3.5078c-0.55078 0-1-0.44922-1-1s0.44922-1 1-1h4.5078c0.55078 0 1 0.44922 1 1v6.4375h5.4141v8.7461h-39.207v-8.7461h5.4141v-6.4375c0-0.55078 0.44922-1 1-1h4.5078c0.55078 0 1 0.44922 1 1s-0.44922 1-1 1h-3.5078v5.4375zm29.027-42.523c0-0.55078 0.44922-1 1-1 0.55078 0 1 0.44922 1 1v5.0117c0 0.55078-0.44922 1-1 1-0.55078 0-1-0.44922-1-1zm6.75-14.305v33.625h11.723v-33.625zm-2 33.625v-33.625h-11.723v33.625zm-62.805-19.316c0-0.55078 0.44922-1 1-1 0.55078 0 1 0.44922 1 1v5.0117c0 0.55078-0.44922 1-1 1-0.55078 0-1-0.44922-1-1zm-9.5 0c0-0.55078 0.44922-1 1-1 0.55078 0 1 0.44922 1 1v5.0117c0 0.55078-0.44922 1-1 1-0.55078 0-1-0.44922-1-1zm6.75-14.305v33.625h11.723v-33.625zm-2 33.625v-33.625h-11.723v33.625zm41.328-33.625h-13.102v24.07c-0.003907 0.19141-0.058594 0.38672-0.17578 0.55859l-4.3203 6.3555h22.094l-4.2695-6.2812c-0.14062-0.17188-0.22656-0.39453-0.22656-0.63281zm18.566 77.461c0-0.55078 0.44922-1 1-1 0.55078 0 1 0.44922 1 1v5.6523c0 0.55078-0.44922 1-1 1-0.55078 0-1-0.44922-1-1zm-52.238 0c0-0.55078 0.44922-1 1-1 0.55078 0 1 0.44922 1 1v5.6523c0 0.55078-0.44922 1-1 1-0.55078 0-1-0.44922-1-1zm59.336-15.262c-0.55078 0-1-0.44922-1-1s0.44922-1 1-1h3.6758c0.55078 0 1 0.44922 1 1s-0.44922 1-1 1zm-34.051 0h3.6758c0.55078 0 1-0.44922 1-1s-0.44922-1-1-1h-3.6758c-0.55078 0-1 0.44922-1 1s0.44922 1 1 1zm-34.051 0c-0.55078 0-1-0.44922-1-1s0.44922-1 1-1h3.6758c0.55078 0 1 0.44922 1 1s-0.44922 1-1 1zm33.344 14.988c-0.55078 0-1-0.44922-1-1 0-0.55078 0.44922-1 1-1h5.0898c0.55078 0 1 0.44922 1 1 0 0.55078-0.44922 1-1 1zm-12.723-6.8086h30.535c0.55078 0 1 0.44922 1 1v17.816c0 0.55078-0.44922 1-1 1h-30.535c-0.55078 0-1-0.44922-1-1v-17.816c0-0.55078 0.44922-1 1-1zm29.535 2h-28.535v15.816h28.535zm-60.766-6.8047h24.895v-8.7461h-24.895zm68.102 0h24.895v-8.7461h-24.895zm24.895 2h-24.895v25.422h24.895zm-26.895 0h-39.207v25.422h39.207zm-41.207 0h-24.895v25.422h24.895z"/>
<text x="0.0" y="117.5" font-size="5.0" font-weight="bold" font-family="Arbeit Regular, Helvetica, Arial-Unicode, Arial, Sans-serif" fill="#000000">Created by Soetarman Atmodjo</text><text x="0.0" y="122.5" font-size="5.0" font-weight="bold" font-family="Arbeit Regular, Helvetica, Arial-Unicode, Arial, Sans-serif" fill="#000000">from Noun Project</text></svg>