<svg xmlns="http://www.w3.org/2000/svg" version="1.1" viewBox="-5.0 -10.0 110.0 135.0">
 <path d="m93.75 64.062h-1.5625v-9.375c0-3.4531-2.7969-6.25-6.25-6.25h-21.875c-1.875 0-3.5469 0.84375-4.6875 2.1562-1.1406-1.3125-2.8125-2.1562-4.6875-2.1562h-21.875c-3.4531 0-6.25 2.7969-6.25 6.25v9.375h-1.5625c-1.7188 0-3.125 1.4062-3.125 3.125v4.6875h-3.125v-3.125c0-1.7188-1.4062-3.125-3.125-3.125v-6.25h6.25c0.48438 0 0.9375-0.21875 1.2344-0.59375s0.40625-0.875 0.28125-1.3438l-3.125-12.5c-0.17188-0.6875-0.79688-1.1875-1.5156-1.1875h-9.375c-0.71875 0-1.3438 0.48438-1.5156 1.1875l-3.125 12.5c-0.10938 0.46875 0 0.96875 0.28125 1.3438 0.29688 0.375 0.75 0.59375 1.2344 0.59375h6.25v6.25c-1.7188 0-3.125 1.4062-3.125 3.125v3.125h-3.125c-1.7188 0-3.125 1.4062-3.125 3.125v15.625c0 1.7188 1.4062 3.125 3.125 3.125h15.625c1.7188 0 3.125-1.4062 3.125-3.125v-3.125h3.125v4.6875c0 0.85938 0.70312 1.5625 1.5625 1.5625h3.125c0.59375 0 1.1406-0.32812 1.3906-0.85938l2.6875-5.3906h44.938l2.6875 5.3906c0.26562 0.53125 0.8125 0.85938 1.3906 0.85938h3.125c0.85938 0 1.5625-0.70312 1.5625-1.5625v-4.6875h1.5625c2.5781 0 4.6875-2.1094 4.6875-4.6875v-15.625c0-1.7188-1.4062-3.125-3.125-3.125zm-83.156-17.188h6.9375l2.3438 9.375h-11.625zm53.469 4.6875h21.875c1.7188 0 3.125 1.4062 3.125 3.125v9.375c-1.7188 0-3.125 1.4062-3.125 3.125v2.4375c-0.92188-0.53125-1.9844-0.875-3.125-0.875h-18.75c-1.1406 0-2.2031 0.32812-3.125 0.875v-14.938c0-1.7188 1.4062-3.125 3.125-3.125zm-29.688 25c-0.85938 0-1.5625-0.70312-1.5625-1.5625 0-1.7188 1.4062-3.125 3.125-3.125h18.75c1.7188 0 3.125 1.4062 3.125 3.125v1.5625zm26.562-1.5625c0-1.7188 1.4062-3.125 3.125-3.125h18.75c1.7188 0 3.125 1.4062 3.125 3.125 0 0.85938-0.70312 1.5625-1.5625 1.5625h-23.438zm-31.25-20.312c0-1.7188 1.4062-3.125 3.125-3.125h21.875c1.7188 0 3.125 1.4062 3.125 3.125v14.938c-0.92188-0.53125-1.9844-0.875-3.125-0.875h-18.75c-1.1406 0-2.2031 0.32812-3.125 0.875v-2.4375c0-1.7188-1.4062-3.125-3.125-3.125zm-17.188 14.062h3.125v3.125h-3.125zm-6.25 21.875v-15.625h15.625v15.609h-15.625zm25.594 0h-0.59375v-3.125h2.1562zm55.656 0h-0.59375l-1.5625-3.125h2.1562zm6.25-7.8125c0 0.85938-0.70312 1.5625-1.5625 1.5625h-67.188v-17.188h4.6875v7.8125c0 2.5781 2.1094 4.6875 4.6875 4.6875h50c2.5781 0 4.6875-2.1094 4.6875-4.6875v-7.8125h4.6875v15.625z"/>
 <path d="m32.812 37.5h46.875c2.5781 0 4.6875-2.1094 4.6875-4.6875v-21.875c0-2.5781-2.1094-4.6875-4.6875-4.6875h-46.875c-2.5781 0-4.6875 2.1094-4.6875 4.6875v21.875c0 2.5781 2.1094 4.6875 4.6875 4.6875zm46.875-3.125h-46.875c-0.85938 0-1.5625-0.70312-1.5625-1.5625v-8.7969c0.90625-0.9375 4.3125-3.7031 12.5-3.7031 5.25 0 8.4844 1.9062 11.891 3.9219 3.25 1.9219 6.6094 3.8906 11.547 3.8906 5.2344 0 7.375-0.95312 9.2812-1.8125 1.3125-0.59375 2.5-1.0938 4.7812-1.2656v7.75c0 0.85938-0.70312 1.5625-1.5625 1.5625zm-46.875-25h46.875c0.85938 0 1.5625 0.70312 1.5625 1.5625v10.984c-3 0.1875-4.5469 0.875-6.0625 1.5469-1.7656 0.78125-3.4375 1.5312-8 1.5312-4.0781 0-6.7969-1.6094-9.9531-3.4688-3.4531-2.0312-7.375-4.3438-13.484-4.3438s-10.188 1.5-12.5 2.9219v-9.1719c0-0.85938 0.70312-1.5625 1.5625-1.5625z"/>
<text x="0.0" y="117.5" font-size="5.0" font-weight="bold" font-family="Arbeit Regular, Helvetica, Arial-Unicode, Arial, Sans-serif" fill="#000000">Created by Roat Studio</text><text x="0.0" y="122.5" font-size="5.0" font-weight="bold" font-family="Arbeit Regular, Helvetica, Arial-Unicode, Arial, Sans-serif" fill="#000000">from Noun Project</text></svg>